# Blender v2.71 (sub 0) OBJ File: 'dreidel.blend'
# www.blender.org
mtllib dreidel.mtl
o Cube_Cube.002
v -0.917829 -1.023253 0.977146
v -0.917829 -1.023253 -1.022854
v 1.082171 -1.023253 -1.022854
v 1.082171 -1.023253 0.977146
v -0.917829 1.139777 0.977146
v -0.917829 1.139777 -1.022854
v 1.082171 1.139777 -1.022854
v 1.082171 1.139777 0.977146
v 0.085142 1.139776 0.118495
v 0.113629 1.139776 0.115690
v 0.141021 1.139776 0.107380
v 0.166266 1.139776 0.093887
v 0.188393 1.139776 0.075728
v 0.206553 1.139776 0.053600
v 0.220046 1.139776 0.028356
v 0.228355 1.139776 0.000964
v 0.231161 1.139776 -0.027523
v 0.228355 1.139776 -0.056010
v 0.220046 1.139776 -0.083402
v 0.206553 1.139776 -0.108647
v 0.188393 1.139776 -0.130774
v 0.166266 1.139776 -0.148933
v 0.141021 1.139776 -0.162427
v 0.113629 1.139776 -0.170736
v 0.085142 1.139776 -0.173542
v 0.056656 1.139776 -0.170736
v 0.029263 1.139776 -0.162427
v 0.004019 1.139776 -0.148933
v -0.018108 1.139776 -0.130774
v -0.036268 1.139776 -0.108647
v -0.049761 1.139776 -0.083402
v -0.058071 1.139776 -0.056010
v -0.060876 1.139776 -0.027523
v -0.058070 1.139776 0.000964
v -0.049761 1.139776 0.028356
v -0.036268 1.139776 0.053601
v -0.018108 1.139776 0.075728
v 0.004019 1.139776 0.093887
v 0.029264 1.139776 0.107381
v 0.056656 1.139776 0.115690
v -0.917829 1.139777 0.977146
v -0.917829 1.139777 -1.022854
v 1.082171 1.139777 -1.022854
v 1.082171 1.139777 0.977146
v -0.917829 -1.023253 0.977146
v -0.917829 -1.023253 -1.022854
v 1.082171 -1.023253 -1.022854
v 1.082171 -1.023253 0.977146
v 0.082171 -2.128235 -0.022854
v -0.917829 -1.023253 0.977146
v -0.917829 -1.023253 -1.022854
v 1.082171 -1.023253 -1.022854
v 1.082171 -1.023253 0.977146
v 0.085142 1.139776 0.118495
v 0.113629 1.139776 0.115690
v 0.141021 1.139776 0.107380
v 0.166266 1.139776 0.093887
v 0.188393 1.139776 0.075728
v 0.206553 1.139776 0.053600
v 0.220046 1.139776 0.028356
v 0.228355 1.139776 0.000964
v 0.231161 1.139776 -0.027523
v 0.228355 1.139776 -0.056010
v 0.220046 1.139776 -0.083402
v 0.206553 1.139776 -0.108647
v 0.188393 1.139776 -0.130774
v 0.166266 1.139776 -0.148933
v 0.141021 1.139776 -0.162427
v 0.113629 1.139776 -0.170736
v 0.085142 1.139776 -0.173542
v 0.056656 1.139776 -0.170736
v 0.029263 1.139776 -0.162427
v 0.004019 1.139776 -0.148933
v -0.018108 1.139776 -0.130774
v -0.036268 1.139776 -0.108647
v -0.049761 1.139776 -0.083402
v -0.058071 1.139776 -0.056010
v -0.060876 1.139776 -0.027523
v -0.058070 1.139776 0.000964
v -0.049761 1.139776 0.028356
v -0.036268 1.139776 0.053601
v -0.018108 1.139776 0.075728
v 0.004019 1.139776 0.093887
v 0.029264 1.139776 0.107381
v 0.056656 1.139776 0.115690
v -0.917829 1.139777 0.977146
v -0.917829 1.139777 -1.022854
v 1.082171 1.139777 -1.022854
v 1.082171 1.139777 0.977146
v 0.085142 1.139776 0.118495
v 0.113629 1.139776 0.115690
v 0.141021 1.139776 0.107380
v 0.166266 1.139776 0.093887
v 0.188393 1.139776 0.075728
v 0.206553 1.139776 0.053600
v 0.220046 1.139776 0.028356
v 0.228355 1.139776 0.000964
v 0.231161 1.139776 -0.027523
v 0.228355 1.139776 -0.056010
v 0.220046 1.139776 -0.083402
v 0.206553 1.139776 -0.108647
v 0.188393 1.139776 -0.130774
v 0.166266 1.139776 -0.148933
v 0.141021 1.139776 -0.162427
v 0.113629 1.139776 -0.170736
v 0.085142 1.139776 -0.173542
v 0.056656 1.139776 -0.170736
v 0.029263 1.139776 -0.162427
v 0.004019 1.139776 -0.148933
v -0.018108 1.139776 -0.130774
v -0.036268 1.139776 -0.108647
v -0.049761 1.139776 -0.083402
v -0.058071 1.139776 -0.056010
v -0.060876 1.139776 -0.027523
v -0.058070 1.139776 0.000964
v -0.049761 1.139776 0.028356
v -0.036268 1.139776 0.053601
v -0.018108 1.139776 0.075728
v 0.004019 1.139776 0.093887
v 0.029264 1.139776 0.107381
v 0.056656 1.139776 0.115690
v 0.085142 2.478294 0.118495
v 0.113629 2.478294 0.115690
v 0.141021 2.478294 0.107380
v 0.166266 2.478294 0.093887
v 0.188393 2.478294 0.075728
v 0.206553 2.478294 0.053600
v 0.220046 2.478294 0.028356
v 0.228355 2.478294 0.000964
v 0.231161 2.478294 -0.027523
v 0.228355 2.478294 -0.056010
v 0.220046 2.478294 -0.083402
v 0.206553 2.478294 -0.108647
v 0.188393 2.478294 -0.130774
v 0.166266 2.478294 -0.148933
v 0.141021 2.478294 -0.162427
v 0.113629 2.478294 -0.170736
v 0.085142 2.478294 -0.173542
v 0.056656 2.478294 -0.170736
v 0.029263 2.478294 -0.162427
v 0.004019 2.478294 -0.148933
v -0.018108 2.478294 -0.130774
v -0.036268 2.478294 -0.108647
v -0.049761 2.478294 -0.083402
v -0.058071 2.478294 -0.056010
v -0.060876 2.478294 -0.027523
v -0.058070 2.478294 0.000964
v -0.049761 2.478294 0.028356
v -0.036268 2.478294 0.053601
v -0.018108 2.478294 0.075728
v 0.004019 2.478294 0.093887
v 0.029264 2.478294 0.107381
v 0.056656 2.478294 0.115690
vt 0.000000 0.000000
vt 0.002988 0.998124
vt 0.002988 -0.001094
vt 1.000759 -0.001094
vt 1.000759 0.998124
vt 0.000100 0.999900
vt 0.000100 0.000100
vt 0.996219 0.000100
vt 0.995709 0.999900
vt 0.392727 0.000100
vt 0.415082 0.999900
vt 0.385150 0.999900
vt 0.407595 0.000100
vt 1.003046 0.000100
vt 1.003045 0.999900
vt 0.001775 0.999072
vt 0.001775 -0.004275
vt 1.002878 -0.004275
vt 1.002878 0.999072
vt 0.925285 0.620905
vt 0.000086 0.745106
vt 0.500000 0.000086
vt 0.999914 0.745106
vt 0.999900 0.999900
vt 0.273281 1.000000
vt 0.299007 1.000000
vt 0.299007 0.000000
vt 0.039582 1.000000
vt 0.063350 1.000000
vt 0.063350 0.000000
vt 0.527130 1.000000
vt 0.550898 1.000000
vt 0.550898 0.000000
vt 0.324239 1.000000
vt 0.348007 1.000000
vt 0.348007 0.000000
vt 0.572289 1.000000
vt 0.593679 1.000000
vt 0.593679 0.000000
vt 0.114308 0.000000
vt 0.114308 1.000000
vt 0.139540 1.000000
vt 0.369398 1.000000
vt 0.387589 1.000000
vt 0.387589 0.000000
vt 0.617447 0.000000
vt 0.617447 1.000000
vt 0.642679 1.000000
vt 0.163308 1.000000
vt 0.184699 1.000000
vt 0.184699 0.000000
vt 0.405781 1.000000
vt 0.427171 1.000000
vt 0.427171 0.000000
vt 0.668406 1.000000
vt 0.693637 1.000000
vt 0.693637 0.000000
vt 0.202890 0.000000
vt 0.202890 1.000000
vt 0.224281 1.000000
vt 0.717406 1.000000
vt 0.738796 1.000000
vt 0.738796 0.000000
vt 0.450939 1.000000
vt 0.476171 1.000000
vt 0.476171 0.000000
vt 0.248049 0.000000
vt 0.248049 1.000000
vt 0.018191 1.000000
vt 0.039582 0.000000
vt 0.501898 0.000000
vt 0.501898 1.000000
vt 0.088582 1.000000
vt 0.088582 0.000000
vt 0.163308 0.000000
vt 0.405781 0.000000
vt 0.642679 0.000000
vt 0.717405 0.000000
vt 0.000000 1.000000
vt 0.018191 0.000000
vt 0.831303 0.189835
vt 0.994981 0.125006
vt 0.907494 0.003719
vt 0.999900 0.000100
vt 0.273281 0.000000
vt 0.527130 0.000000
vt 0.324239 0.000000
vt 0.572288 0.000000
vt 0.139540 0.000000
vt 0.369398 0.000000
vt 0.668405 0.000000
vt 0.224281 0.000000
vt 0.450939 0.000000
vt 0.882262 0.000000
vt 0.856535 0.000000
vt 0.831303 0.003719
vt 0.807535 0.011014
vt 0.786144 0.021605
vt 0.767953 0.035085
vt 0.753660 0.050936
vt 0.743815 0.068548
vt 0.738796 0.087245
vt 0.738796 0.106309
vt 0.743815 0.125006
vt 0.753660 0.142618
vt 0.786144 0.171949
vt 0.767953 0.158469
vt 0.807535 0.182540
vt 0.856535 0.193554
vt 0.882261 0.193554
vt 1.000000 0.087245
vt 0.985136 0.050936
vt 0.952652 0.021605
vt 0.970843 0.158469
vt 0.907493 0.189835
vt 0.952652 0.171949
vt 0.985136 0.142618
vt 1.000000 0.106309
vt 0.994981 0.068548
vt 0.970843 0.035085
vt 0.931261 0.011014
vt 0.931261 0.182540
vn 0.000000 0.000000 1.000000
vn 0.000000 -1.000000 0.000000
vn 0.000000 0.000000 -1.000000
vn 1.000000 0.000000 0.000000
vn -1.000000 0.000000 0.000000
vn 0.000000 -0.671000 -0.741500
vn 0.741500 -0.671000 0.000000
vn 0.000000 -0.671000 0.741500
vn -0.741500 -0.671000 0.000000
vn 0.000000 1.000000 0.000000
vn -0.995200 0.000000 -0.098000
vn 0.290300 0.000000 0.956900
vn 0.634400 0.000000 -0.773000
vn -0.881900 0.000000 -0.471400
vn 0.881900 0.000000 -0.471400
vn -0.290300 0.000000 0.956900
vn -0.634400 0.000000 -0.773000
vn 0.995200 0.000000 -0.098000
vn -0.634400 0.000000 0.773000
vn -0.290300 0.000000 -0.956900
vn 0.956900 0.000000 0.290300
vn -0.881900 0.000000 0.471400
vn 0.773000 0.000000 0.634400
vn 0.098000 0.000000 -0.995200
vn -0.995200 0.000000 0.098000
vn 0.471400 0.000000 0.881900
vn 0.471400 0.000000 -0.881900
vn -0.956900 0.000000 -0.290300
vn 0.098000 0.000000 0.995200
vn 0.773000 0.000000 -0.634400
vn -0.098000 0.000000 0.995200
vn -0.773000 0.000000 -0.634400
vn 0.956900 0.000000 -0.290300
vn -0.471400 0.000000 0.881900
vn -0.471400 0.000000 -0.881900
vn 0.995200 0.000000 0.098000
vn -0.773000 0.000000 0.634400
vn -0.098000 0.000000 -0.995200
vn 0.881900 0.000000 0.471400
vn -0.956900 0.000000 0.290300
vn 0.634400 0.000000 0.773000
vn 0.290300 0.000000 -0.956900
vn 0.000000 1.000000 -0.000100
vn 0.000000 1.000000 0.000100
usemtl None
s off
f 8/1/1 44/1/1 41/1/1
f 7/1/1 43/1/1 44/1/1
f 6/1/1 42/1/1 43/1/1
f 82/1/1 81/1/1 36/1/1
f 5/1/1 41/1/1 42/1/1
f 65/1/1 64/1/1 19/1/1
f 75/1/1 74/1/1 29/1/1
f 58/1/1 57/1/1 12/1/1
f 68/1/1 67/1/1 22/1/1
f 85/1/1 84/1/1 39/1/1
f 78/1/1 77/1/1 32/1/1
f 61/1/1 60/1/1 15/1/1
f 71/1/1 70/1/1 25/1/1
f 42/1/1 87/1/1 88/1/1
f 81/1/1 80/1/1 35/1/1
f 64/1/1 63/1/1 18/1/1
f 57/1/1 56/1/1 11/1/1
f 74/1/1 73/1/1 28/1/1
f 84/1/1 83/1/1 38/1/1
f 67/1/1 66/1/1 21/1/1
f 77/1/1 76/1/1 31/1/1
f 60/1/1 59/1/1 14/1/1
f 70/1/1 69/1/1 24/1/1
f 41/1/1 86/1/1 87/1/1
f 80/1/1 79/1/1 34/1/1
f 63/1/1 62/1/1 17/1/1
f 73/1/1 72/1/1 27/1/1
f 56/1/1 55/1/1 10/1/1
f 44/1/1 89/1/1 86/1/1
f 66/1/1 65/1/1 20/1/1
f 83/1/1 82/1/1 37/1/1
f 59/1/1 58/1/1 13/1/1
f 76/1/1 75/1/1 30/1/1
f 69/1/1 68/1/1 23/1/1
f 54/1/1 85/1/1 40/1/1
f 79/1/1 78/1/1 33/1/1
f 62/1/1 61/1/1 16/1/1
f 55/1/1 54/1/1 9/1/1
f 72/1/1 71/1/1 26/1/1
f 43/1/1 88/1/1 89/1/1
f 51/1/2 52/1/2 53/1/2
f 108/1/1 107/1/1 71/1/1
f 91/1/1 90/1/1 54/1/1
f 98/1/1 97/1/1 61/1/1
f 115/1/1 114/1/1 78/1/1
f 90/1/1 121/1/1 85/1/1
f 105/1/1 104/1/1 68/1/1
f 112/1/1 111/1/1 75/1/1
f 95/1/1 94/1/1 58/1/1
f 119/1/1 118/1/1 82/1/1
f 102/1/1 101/1/1 65/1/1
f 92/1/1 91/1/1 55/1/1
f 109/1/1 108/1/1 72/1/1
f 99/1/1 98/1/1 62/1/1
f 116/1/1 115/1/1 79/1/1
f 106/1/1 105/1/1 69/1/1
f 96/1/1 95/1/1 59/1/1
f 113/1/1 112/1/1 76/1/1
f 103/1/1 102/1/1 66/1/1
f 120/1/1 119/1/1 83/1/1
f 110/1/1 109/1/1 73/1/1
f 93/1/1 92/1/1 56/1/1
f 100/1/1 99/1/1 63/1/1
f 117/1/1 116/1/1 80/1/1
f 107/1/1 106/1/1 70/1/1
f 97/1/1 96/1/1 60/1/1
f 114/1/1 113/1/1 77/1/1
f 121/1/1 120/1/1 84/1/1
f 104/1/1 103/1/1 67/1/1
f 94/1/1 93/1/1 57/1/1
f 111/1/1 110/1/1 74/1/1
f 101/1/1 100/1/1 64/1/1
f 118/1/1 117/1/1 81/1/1
f 5/1/1 8/1/1 41/1/1
f 8/1/1 7/1/1 44/1/1
f 7/1/1 6/1/1 43/1/1
f 37/1/1 82/1/1 36/1/1
f 6/1/1 5/1/1 42/1/1
f 20/1/1 65/1/1 19/1/1
f 30/1/1 75/1/1 29/1/1
f 13/1/1 58/1/1 12/1/1
f 23/1/1 68/1/1 22/1/1
f 40/1/1 85/1/1 39/1/1
f 33/1/1 78/1/1 32/1/1
f 16/1/1 61/1/1 15/1/1
f 26/1/1 71/1/1 25/1/1
f 43/1/1 42/1/1 88/1/1
f 36/1/1 81/1/1 35/1/1
f 19/1/1 64/1/1 18/1/1
f 12/1/1 57/1/1 11/1/1
f 29/1/1 74/1/1 28/1/1
f 39/1/1 84/1/1 38/1/1
f 22/1/1 67/1/1 21/1/1
f 32/1/1 77/1/1 31/1/1
f 15/1/1 60/1/1 14/1/1
f 25/1/1 70/1/1 24/1/1
f 42/1/1 41/1/1 87/1/1
f 35/1/1 80/1/1 34/1/1
f 18/1/1 63/1/1 17/1/1
f 28/1/1 73/1/1 27/1/1
f 11/1/1 56/1/1 10/1/1
f 41/1/1 44/1/1 86/1/1
f 21/1/1 66/1/1 20/1/1
f 38/1/1 83/1/1 37/1/1
f 14/1/1 59/1/1 13/1/1
f 31/1/1 76/1/1 30/1/1
f 24/1/1 69/1/1 23/1/1
f 9/1/1 54/1/1 40/1/1
f 34/1/1 79/1/1 33/1/1
f 17/1/1 62/1/1 16/1/1
f 10/1/1 55/1/1 9/1/1
f 27/1/1 72/1/1 26/1/1
f 44/1/1 43/1/1 89/1/1
f 50/1/2 51/1/2 53/1/2
f 72/1/1 108/1/1 71/1/1
f 55/1/1 91/1/1 54/1/1
f 62/1/1 98/1/1 61/1/1
f 79/1/1 115/1/1 78/1/1
f 54/1/1 90/1/1 85/1/1
f 69/1/1 105/1/1 68/1/1
f 76/1/1 112/1/1 75/1/1
f 59/1/1 95/1/1 58/1/1
f 83/1/1 119/1/1 82/1/1
f 66/1/1 102/1/1 65/1/1
f 56/1/1 92/1/1 55/1/1
f 73/1/1 109/1/1 72/1/1
f 63/1/1 99/1/1 62/1/1
f 80/1/1 116/1/1 79/1/1
f 70/1/1 106/1/1 69/1/1
f 60/1/1 96/1/1 59/1/1
f 77/1/1 113/1/1 76/1/1
f 67/1/1 103/1/1 66/1/1
f 84/1/1 120/1/1 83/1/1
f 74/1/1 110/1/1 73/1/1
f 57/1/1 93/1/1 56/1/1
f 64/1/1 100/1/1 63/1/1
f 81/1/1 117/1/1 80/1/1
f 71/1/1 107/1/1 70/1/1
f 61/1/1 97/1/1 60/1/1
f 78/1/1 114/1/1 77/1/1
f 85/1/1 121/1/1 84/1/1
f 68/1/1 104/1/1 67/1/1
f 58/1/1 94/1/1 57/1/1
f 75/1/1 111/1/1 74/1/1
f 65/1/1 101/1/1 64/1/1
f 82/1/1 118/1/1 81/1/1
usemtl None_Nun_Wood.png
f 7/2/3 3/3/3 2/4/3
f 6/5/3 7/2/3 2/4/3
usemtl None_Shin_Wood.png
f 5/6/1 1/7/1 4/8/1
f 8/9/1 5/6/1 4/8/1
usemtl None_wood_texture.jpg
f 1/7/1 50/7/1 53/10/1
f 2/11/1 51/11/1 50/6/1
f 3/12/1 52/12/1 51/6/1
f 4/7/1 53/7/1 52/13/1
f 4/10/1 1/7/1 53/10/1
f 1/6/1 2/11/1 50/6/1
f 2/6/1 3/12/1 51/6/1
f 3/13/1 4/7/1 52/13/1
usemtl None_Hay_Wood.png
f 8/6/4 4/7/4 3/14/4
f 7/15/4 8/6/4 3/14/4
usemtl None_Gimmel_Wood.png
f 6/16/5 2/17/5 1/18/5
f 5/19/5 6/16/5 1/18/5
usemtl None_wood_texture.png
f 47/20/6 49/6/6 46/7/6
f 48/21/7 49/22/7 47/23/7
f 49/22/8 48/23/8 45/21/8
f 49/6/9 45/7/9 46/20/9
f 88/24/10 87/6/10 86/7/10
f 146/25/11 145/26/11 113/27/11
f 124/28/12 123/29/12 91/30/12
f 135/31/13 134/32/13 102/33/13
f 144/34/14 143/35/14 111/36/14
f 133/37/15 132/38/15 100/39/15
f 121/40/16 153/41/16 152/42/16
f 142/43/17 141/44/17 109/45/17
f 99/46/18 131/47/18 130/48/18
f 151/49/19 150/50/19 118/51/19
f 140/52/20 139/53/20 107/54/20
f 129/55/21 128/56/21 96/57/21
f 117/58/22 149/59/22 148/60/22
f 127/61/23 126/62/23 94/63/23
f 138/64/24 137/65/24 105/66/24
f 115/67/25 147/68/25 146/25/25
f 125/69/26 124/28/26 92/70/26
f 104/71/27 136/72/27 135/31/27
f 113/27/28 145/26/28 144/34/28
f 123/29/29 122/73/29 90/74/29
f 102/33/30 134/32/30 133/37/30
f 90/74/31 122/73/31 153/41/31
f 111/36/32 143/35/32 142/43/32
f 132/38/33 131/47/33 99/46/33
f 152/42/34 151/49/34 119/75/34
f 141/44/35 140/52/35 108/76/35
f 98/77/36 130/48/36 129/55/36
f 118/51/37 150/50/37 149/59/37
f 107/54/38 139/53/38 138/64/38
f 128/56/39 127/61/39 95/78/39
f 148/60/40 147/68/40 115/67/40
f 126/79/41 125/69/41 93/80/41
f 137/65/42 136/72/42 104/71/42
f 138/81/10 146/82/10 122/83/10
f 89/84/10 88/24/10 86/7/10
f 114/85/11 146/25/11 113/27/11
f 92/70/12 124/28/12 91/30/12
f 103/86/13 135/31/13 102/33/13
f 112/87/14 144/34/14 111/36/14
f 101/88/15 133/37/15 100/39/15
f 120/89/16 121/40/16 152/42/16
f 110/90/17 142/43/17 109/45/17
f 98/77/18 99/46/18 130/48/18
f 119/75/19 151/49/19 118/51/19
f 108/76/20 140/52/20 107/54/20
f 97/91/21 129/55/21 96/57/21
f 116/92/22 117/58/22 148/60/22
f 95/78/23 127/61/23 94/63/23
f 106/93/24 138/64/24 105/66/24
f 114/85/25 115/67/25 146/25/25
f 93/80/26 125/69/26 92/70/26
f 103/86/27 104/71/27 135/31/27
f 112/87/28 113/27/28 144/34/28
f 91/30/29 123/29/29 90/74/29
f 101/88/30 102/33/30 133/37/30
f 121/40/31 90/74/31 153/41/31
f 110/90/32 111/36/32 142/43/32
f 100/39/33 132/38/33 99/46/33
f 120/89/34 152/42/34 119/75/34
f 109/45/35 141/44/35 108/76/35
f 97/91/36 98/77/36 129/55/36
f 117/58/37 118/51/37 149/59/37
f 106/93/38 107/54/38 138/64/38
f 96/57/39 128/56/39 95/78/39
f 116/92/40 148/60/40 115/67/40
f 94/1/41 126/79/41 93/80/41
f 105/66/42 137/65/42 104/71/42
f 122/83/10 123/94/10 124/95/10
f 124/95/10 125/96/10 126/97/10
f 126/97/10 127/98/10 128/99/10
f 128/99/10 129/100/10 130/101/10
f 130/101/10 131/102/10 132/103/10
f 132/103/10 133/104/10 134/105/10
f 136/106/10 138/81/10 135/107/10
f 136/106/43 137/108/43 138/81/43
f 138/81/44 139/109/44 140/110/44
f 148/111/10 150/112/10 152/113/10
f 144/114/10 141/115/10 143/116/10
f 144/114/10 145/117/10 146/82/10
f 146/82/10 147/118/10 148/111/10
f 148/111/10 149/119/10 150/112/10
f 150/112/10 151/120/10 152/113/10
f 122/83/10 148/111/10 153/121/10
f 126/97/10 128/99/10 124/95/10
f 122/83/10 146/82/10 148/111/10
f 134/105/10 135/107/10 132/103/10
f 144/114/10 140/110/10 141/115/10
f 141/115/10 142/122/10 143/116/10
f 146/82/10 138/81/10 144/114/10
f 148/111/10 152/113/10 153/121/10
f 135/107/10 138/81/10 132/103/10
f 130/101/10 132/103/10 128/99/10
f 132/103/10 138/81/10 128/99/10
f 144/114/10 138/81/10 140/110/10
f 128/99/10 122/83/10 124/95/10
f 122/83/10 128/99/10 138/81/10
l 1 45
l 2 46
l 3 47
l 4 48
